<svg t="1711982671116" class="icon" viewBox="0 0 1024 1024" version="1.1" xmlns="http://www.w3.org/2000/svg" p-id="3443" width="200" height="200"><path d="M502.857271 434.802804c0.060375-0.121773 0.116657-0.182149 0.177032-0.240477-0.177032-0.954745-0.354064-1.667989-0.413416-2.203178C502.737544 433.134815 502.797919 433.964716 502.857271 434.802804L502.857271 434.802804zM674.413532 622.083188L674.413532 622.083188c0 0-0.11768 0-0.11768-0.063445C674.294828 622.083188 674.35418 622.083188 674.413532 622.083188L674.413532 622.083188zM678.821935 622.678752c-1.073448-0.182149-3.454682 0.11768-4.350075-0.595564C673.877319 624.106264 674.709267 624.883977 678.821935 622.678752L678.821935 622.678752zM511.674077 63.871703c-246.728334 0-446.75809 199.969381-446.75809 446.75809s200.029756 446.759113 446.75809 446.759113c246.788709 0 446.75809-199.970404 446.75809-446.759113S758.461763 63.871703 511.674077 63.871703L511.674077 63.871703zM797.001521 238.405785c-15.365966 0.476861-26.086122 0.476861-38.480406 8.992815-4.944616 3.458775-8.398274 8.04421-14.651698 9.771551-5.717212 1.550309-11.792581 0.177032-17.455557 2.14485-20.310581 6.848988-17.033955 50.39169-43.779086 43.719734-12.570293-3.035126-21.3871-17.928325-27.758204-27.577079-5.599532-8.580422-15.72924-15.60542-8.816806-26.272363-3.158946 0.836041-6.435573-0.11768-9.530051 0.476861 4.227278-9.410324 18.642592-8.633634 21.028942-13.401218 6.011924-12.029988-16.324804-13.343913-22.696931-15.010879 7.621585-8.15882 11.434423 2.798742 19.000749 0.953721 7.208169-1.784646-3.812839-11.256368-8.16189-12.388145-1.550309-0.417509-27.040866 7.02602-12.329816-6.199189-18.169825-11.552104-36.335556-23.228027-54.56371-34.843576-3.098571 12.924357 24.182772 20.250206 33.117258 24.836665-1.36816 5.361101-9.648754 13.105482-16.019859 10.842952-6.01704-2.145873-3.576455-12.035104-12.570293-11.139711-6.435573 15.011902 13.642718 10.661827 15.488763 19.838837 2.085498 10.482749-7.625678 6.012947-11.320836 5.894244-0.890276-0.059352-7.862062-7.267521-8.216125-1.846044-0.477884 6.494924 11.138688 3.931542 11.912307 10.54517-13.520945 0.534166-20.374026-4.290723-31.272237-11.558244-12.8077-8.515954-19.360953-7.743358-35.026748-7.743358 4.704139-1.904373 11.19804-3.335978 15.129582-6.431479 2.203178-1.730411 10.779507-10.070356 11.31572-11.915377 2.445702-8.039093-0.11768-7.444553-7.80271-12.688997-6.847965-4.704139-15.128559-13.102413-23.409153-14.769378-30.022781-5.957689-9.29469 27.104311-32.042787 31.629371 0.352017 0.060375 0.829901 0.060375 1.12973 0.060375l-1.254573 0c0.059352 0 0.059352-0.060375 0.12382-0.060375-5.246491-0.059352-15.135722-1.372254-18.530029 1.36816-2.440585 1.909489-2.622734 9.829879-5.298679 12.688997-4.768607 5.062296-11.857049 6.076392-17.574261 9.771551-5.599532 3.51301-17.810644 12.742209-21.028942 19.000749-12.028964 22.932292 27.04496 30.081109 41.878806 36.751019 6.67298 3.096525 26.270317 7.209192 29.957289 12.33084 4.886287 6.789637-4.284583 13.165858 5.959735 17.928325 3.275603 1.550309 10.005888 1.851161 12.806677-1.249457 4.526083-5.180999-1.846044-6.252401-2.976798-12.270465-2.085498-11.438517 1.36816-6.907317 7.148817-11.138688 11.792581-8.699126 9.111518-9.175987 4.885264-23.054065-1.968841-6.373151-9.354042-24.301476-2.799766-29.068036 8.457626-6.195096 26.504654 3.394307 33.057907 4.172019 7.507998 0.950651 11.852956 11.434423 15.966647 15.724123 2.740414 2.798742 7.620561 8.815783 12.388145 8.221242 7.625678-1.073448 4.408403-7.686053 8.815783-10.784624 11.852956-8.157797 14.893198 2.920516 19.596314 14.06125 4.467755 10.483772 8.699126 14.293541 16.501836 21.087271 3.694135 3.152806 19.715017 14.233166 18.228153 21.144576-1.013073 4.585435-19.35993 11.617595-24.245194 13.161764-17.929348 5.722328-51.52756-9.289574-55.158251 19.123546 7.02602-2.562359 26.804483-18.705014 32.702819-11.079336 2.676969 3.51301-2.14485 8.576329-1.072425 11.970636 3.454682 10.367115 11.434423 6.730285 19.773346 5.126764-0.535189 0.355087-1.130753 0.654916-1.785669 0.950651 11.43954-5.895267 10.248412-4.64581 15.488763-14.234189 1.727341-3.158946 4.231371-10.666944 6.671956-12.865006 8.338922-7.626701 9.589402-2.38635 14.71105 3.571339 1.312902 1.490957 14.06125 19.837814 9.534144 18.942421-14.774495-3.036149-29.013801-2.622734-41.22389 5.479805-7.085372 4.644787-13.756305 11.022031-22.219047 14.116509-2.023076 0.717338-17.033955 2.203178-15.306614-0.356111 2.622734-3.752464 11.55722-6.257517 15.010879-10.247388-9.711176-3.989871-17.869996 4.826935-25.495674 10.006911-8.16189 3.813862-10.006911 11.021008-16.914228 17.274432-2.981914 2.740414-8.699126 3.218298-11.675924 6.794753-2.921539 3.51301-3.217275 8.933463-5.957689 12.328793-1.908466 2.323928-6.853082 0.950651-8.815783 4.409426-2.622734 4.585435 2.381234 8.875135 1.307785 12.152784-2.022053 5.952572-13.402241 11.016915-17.751293 15.306614 0.595564-0.596588 1.195222-1.131777 1.727341-1.727341-4.40431 4.644787-9.943466 8.039093-13.403265 13.402241 1.608637 7.506974 6.554276 25.435299 5.128811 29.544897-4.532223 13.583366-13.343913-7.325849-16.980743-12.806677-12.387122-18.643616-37.111223-6.195096-53.908794-4.586458-21.564132 1.968841-42.710754 29.962405-29.427216 52.719712 6.376221 10.897188 17.156752 15.128559 29.485545 12.629645 10.962679-2.328022 14.238282-17.632589 24.541953-17.934464 19.000749-0.475837 0.476861 18.648732-1.192152 25.678846-1.489934 6.430456 2.381234 7.02602 9.05319 8.694009 4.943592 1.191128 11.974729-2.14485 16.207124 0.713244 2.675946 1.731434 2.557242 11.497868 6.312776 8.403391-7.325849 6.072299-5.600555 20.428262 1.845021 25.613354 8.338922 5.776563 18.110473 0.477884 26.745131 2.618641 16.501836 4.170996 8.639774-1.25048 22.99676-9.948583 9.766434-5.835915 11.316743 1.134847 18.047028 1.134847 4.467755 0 7.390317-6.493901 14.951527-4.64888 6.135744 1.608637 8.580422 6.376221 15.906272 7.448646 3.036149 0.413416 6.195096-1.195222 8.993838-0.836041 13.643742 1.490957 24.004717 10.184967 34.789341 18.110473 8.81169 6.430456 14.651698 5.121648 25.018813 8.098445 7.562233 2.14485 21.441335 13.107529 20.786419 22.695908-0.11768 1.667989-6.730285 10.307763-7.863085 14.178931 1.904373 1.308809 15.371082-1.667989 19.238157-1.908466-1.25048 1.431605-10.42135 7.921413-10.42135 4.467755 0 1.727341 6.430456 5.362124 8.039093 6.434549 4.76656-15.487739 12.629645-5.539156 22.040992-1.667989 8.039093 3.276626 17.929348 3.454682 26.446325 5.480828 7.207146 1.727341 23.232121 6.671956 28.594245 12.565177 6.435573 7.148817 1.963725 18.706037-2.798742 25.914206-6.253424 9.293667-15.724123 12.865006-19.596314 23.826662-3.099594 8.694009-0.836041 17.393135-2.563382 27.040866-2.381234 13.048177-4.2897 8.521071-12.687974 16.384156-7.090489 6.671956-0.118704 5.54018-9.766434 9.829879-9.594519 4.226255-18.110473 3.036149-24.840758 13.638625 0.294712-0.713244 0.535189-1.308809 0.713244-2.02717-2.799766 3.936659-4.227278 12.035104-5.599532 14.656815-3.335978 6.730285-7.980765 11.079336-13.34289 16.678868-2.02717 2.14485-20.846794 27.818579-21.919219 25.790386-1.373277-2.681062-16.142655 2.682086-16.861016-1.190105 0.594541 3.218298-0.178055 2.14485 3.518127 3.931542-3.39533 21.086248-12.270465 24.245194-33.003672 24.481577 1.727341 10.129708-7.502881 8.103562-11.852956 13.58439-2.503007 3.217275-3.753487 12.151761-5.479805 16.200984-1.072425 2.622734-9.111518 12.983709-9.111518 15.010879-0.059352 1.904373 2.675946 4.644787 5.239328 7.325849-14.59337 2.918469-29.426193 4.944616-44.615127 6.195096 2.859118-3.631714 3.572362-6.671956-5.480828-7.148817 2.381234-6.489808 8.099469-10.301623 10.484795-16.619516 1.130753-2.975774 0.177032-4.166903 1.191128-7.143701 3.276626-10.248412 1.845021-6.316869 0-14.297634-4.350075-18.646686 1.549286-23.769356 6.612605-40.865733 5.239328-17.570167 4.703115-40.324404 8.098445-59.207473 1.549286-9.058306 4.170996-27.876907 1.072425-36.397978-3.572362-9.648754-19.119453-17.21508-26.208918-23.645536-10.125615-9.175987-15.488763-19.123546-22.991644-30.55797-3.753487-5.780657-8.16189-11.380188-11.138688-17.691941-6.318916-13.461593 0-5.480828 1.131777-13.403265 1.01205-7.68503-0.956791-14.474666 2.085498-22.518876 3.393283-8.875135 11.734252-14.415314 14.474666-23.409153 2.498914-8.039093 0.654916-18.047028-7.567349-20.668739-4.584412-1.490957-9.589402 1.90335-14.177907 1.190105-6.373151-1.013073-13.580297-5.834892-18.643616-9.648754-7.030114-5.303796-9.648754-13.938454-17.0974-19.064194-6.194072-4.167926-10.661827-1.667989-17.33276-3.690042-7.031137-2.026146-11.31572-10.661827-16.977673-13.283538-8.399297-4.049223-13.103436 1.727341-22.097274 0.535189-7.567349-0.954745-19.123546-9.353019-26.15059-12.570293-14.416338-6.372128-23.173792-13.519921-28.953426-28.113291-4.940522-12.511965-12.088316-18.346857-20.551058-28.832675-8.576329-10.543124-11.258415-19.537985-24.418133-22.401196-1.608637-0.293689 3.15383 11.140735 3.689019 12.094456 4.709255 8.698103 11.792581 16.678868 17.457604 24.840758 8.457626 11.970636 4.881171 14.233166-3.695159 2.681062-9.771551-13.284561-21.087271-26.508747-29.544897-40.565904-3.217275-5.244444-2.622734-8.699126-7.862062-13.703093-5.067412-4.944616-11.797697-7.325849-16.919345-11.912307-18.466584-16.619516-21.859867-38.83754-19.716041-62.547545 0.654916-7.744381 3.453658-13.879102 2.204202-21.323655-0.955768-6.200212-4.64888-11.262508-9.175987-15.789615-1.428535-2.321882-5.180999-8.098445-5.362124-8.397251-4.166903-6.967692-7.444553-13.820774-14.116509-19.537985-3.75451-3.337002-13.70207-11.021008-23.049972-17.451464 41.875736-52.241828 96.614431-93.52507 159.462828-119.256104 0.472767 3.157923 1.846044 6.252401 3.872191 9.292644 5.180999 7.679913 10.066263 7.085372 20.190855 9.171893-1.071402 11.735275-14.774495 11.792581-24.003693 10.543124-11.022031-1.549286-22.696931-5.180999-32.285311 4.467755 5.297656 3.218298 19.832697 15.606443 17.928325 2.681062 10.602476-0.595564 20.846794-0.895393 31.094182 0.35918 4.166903 0.595564 18.10638 5.239328 21.859867 3.095501 1.608637-0.8913 3.276626-8.695033 5.003967-11.140735-2.975774 0-6.134721-1.426489-9.05319-1.190105 6.848988-8.757454 13.639648-1.90335 22.455431 2.086521-9.707083 5.894244-3.989871 19.955494 5.421476 8.515954 7.744381-9.293667-1.90335-16.141632-11.6749-21.505803 9.889231-12.388145 15.965623-13.519921 25.195845 0.477884 1.608637-8.634658 8.521071-5.240351 15.787568-4.527107l0-2.263553c-3.217275 0.118704-6.611581-1.726318-9.770528-1.367137 7.386224-11.797697 2.682086-14.475689 13.225209-18.410302 8.398274-2.977821 32.461319-0.118704 35.384905-8.039093-16.800641 3.217275-37.112246 3.989871-52.241828 11.6749-6.493901 3.275603-14.297634 13.70207-20.850887 6.90834-6.670933-6.90834 4.767584-18.048051 10.661827-21.442358l-1.427512 0c26.568099-5.717212 54.086849-8.758478 82.381266-8.758478 18.287505 0 36.216853 1.373277 53.79009 3.75451-6.076392 3.275603-1.549286 5.480828-6.01704 8.695033-8.457626 6.198166-23.527856 11.438517-33.594119 15.370059 12.8077-0.060375 43.838438 11.974729 49.796126-5.957689-4.108574-0.655939-8.221242-1.251503-12.388145-1.963725 7.743358-5.122671 16.319687-9.234315 25.435299-12.270465 81.668021 16.141632 154.278759 57.598836 209.558783 115.679649C797.837562 238.405785 797.41903 238.405785 797.001521 238.405785L797.001521 238.405785zM869.378945 395.244856c0.713244-1.545192 2.441609-2.081405 3.154853-3.394307 1.489934-2.680039 1.195222-4.526083 2.980891-6.847965 1.963725-2.564405 4.644787-3.157923 6.789637-5.122671 0.954745-0.836041 1.431605-1.549286 1.785669-2.322905 6.612605 18.405185 11.858072 37.46631 15.72924 56.94392-0.122797 0.179079-0.240477 0.361227-0.35918 0.478907-0.954745 0.772596-7.208169 1.667989-8.516977 1.727341-4.5312 0.176009-7.925507-2.859118-11.202133-5.65786-3.335978-2.918469-7.207146-6.731308-9.588379-10.484795-2.499937-3.930519-0.954745-8.103562-0.773619-12.630668C869.616352 404.121014 867.771331 398.703631 869.378945 395.244856L869.378945 395.244856zM874.442264 600.101547c-7.686053-6.671956-16.679891-15.665795-22.159696-24.245194-5.840008-9.171893-2.204202-18.642592-1.785669-29.245068 0.354064-8.816806-3.931542-21.446451-0.240477-29.427216 1.727341-3.694135 5.721305-4.885264 7.329942-7.862062 3.51301-6.318916 2.736321-10.602476 6.967692-16.084327 4.526083-5.841032 10.721179-7.267521 15.724123-11.797697 5.362124-4.821819 5.185093-8.635681 8.638751-14.770402 2.440585-4.466732 8.280594-11.974729 13.703093-15.965623 3.036149 19.537985 4.643764 39.550785 4.643764 59.925834 0 35.202757-4.708232 69.338205-13.402241 101.800547C886.476345 610.585319 880.336508 605.223195 874.442264 600.101547L874.442264 600.101547zM874.442264 600.101547" fill="" p-id="3444"></path></svg>